<mxfile host="app.diagrams.net" modified="2024-04-28T09:32:06.166Z" agent="Mozilla/5.0 (Macintosh; Intel Mac OS X 10.15; rv:125.0) Gecko/20100101 Firefox/125.0" version="24.3.1" etag="sRHG98388MdDO8TeJ-75" type="github">
  <diagram name="Page-1" id="iS05QPQouI6a3BmT-yeS">
    <mxGraphModel>
      <root>
        <mxCell id="0" />
        <mxCell id="1" parent="0" />
      </root>
    </mxGraphModel>
  </diagram>
</mxfile>
